solid OpenSCAD_Model
  facet normal 0 -1 0
    outer loop
      vertex 0 -4 0
      vertex 55 -4 3.2
      vertex 0 -4 3.2
    endloop
  endfacet
  facet normal 0 -1 -0
    outer loop
      vertex 55 -4 3.2
      vertex 0 -4 0
      vertex 55 -4 0
    endloop
  endfacet
  facet normal 0.10452 -0.994523 0
    outer loop
      vertex 55 -4 0
      vertex 55.8316 -3.9126 3.2
      vertex 55 -4 3.2
    endloop
  endfacet
  facet normal 0.10452 -0.994523 0
    outer loop
      vertex 55.8316 -3.9126 3.2
      vertex 55 -4 0
      vertex 55.8316 -3.9126 0
    endloop
  endfacet
  facet normal 0.309031 -0.951052 0
    outer loop
      vertex 55.8316 -3.9126 0
      vertex 56.627 -3.65417 3.2
      vertex 55.8316 -3.9126 3.2
    endloop
  endfacet
  facet normal 0.309031 -0.951052 0
    outer loop
      vertex 56.627 -3.65417 3.2
      vertex 55.8316 -3.9126 0
      vertex 56.627 -3.65417 0
    endloop
  endfacet
  facet normal -0.10452 0.994523 0
    outer loop
      vertex 0 84 0
      vertex -0.83165 83.9126 3.2
      vertex 0 84 3.2
    endloop
  endfacet
  facet normal -0.10452 0.994523 0
    outer loop
      vertex -0.83165 83.9126 3.2
      vertex 0 84 0
      vertex -0.83165 83.9126 0
    endloop
  endfacet
  facet normal 1 -0 0
    outer loop
      vertex 59 0 3.2
      vertex 59 80 0
      vertex 59 80 3.2
    endloop
  endfacet
  facet normal 1 0 0
    outer loop
      vertex 59 80 0
      vertex 59 0 3.2
      vertex 59 0 0
    endloop
  endfacet
  facet normal 0 0 -1
    outer loop
      vertex 51 76 0
      vertex 59 80 0
      vertex 59 0 0
    endloop
  endfacet
  facet normal 0 0 -1
    outer loop
      vertex 55 -4 0
      vertex 59 0 0
      vertex 58.8042 -1.23607 0
    endloop
  endfacet
  facet normal 0 0 -1
    outer loop
      vertex 51 76 0
      vertex 59 0 0
      vertex 51 4 0
    endloop
  endfacet
  facet normal 0 0 -1
    outer loop
      vertex 55 -4 0
      vertex 58.8042 -1.23607 0
      vertex 58.4641 -2 0
    endloop
  endfacet
  facet normal 0 -0 -1
    outer loop
      vertex 55 84 0
      vertex 59 80 0
      vertex 51 76 0
    endloop
  endfacet
  facet normal 0 0 -1
    outer loop
      vertex 55 -4 0
      vertex 58.4641 -2 0
      vertex 57.9726 -2.67653 0
    endloop
  endfacet
  facet normal 0 0 -1
    outer loop
      vertex 59 80 0
      vertex 55 84 0
      vertex 58.9126 80.8316 0
    endloop
  endfacet
  facet normal 0 0 -1
    outer loop
      vertex 55 -4 0
      vertex 57.9726 -2.67653 0
      vertex 57.3511 -3.23607 0
    endloop
  endfacet
  facet normal 0 0 -1
    outer loop
      vertex 58.9126 80.8316 0
      vertex 55 84 0
      vertex 58.6542 81.627 0
    endloop
  endfacet
  facet normal 0 0 -1
    outer loop
      vertex 55 -4 0
      vertex 57.3511 -3.23607 0
      vertex 56.627 -3.65417 0
    endloop
  endfacet
  facet normal 0 0 -1
    outer loop
      vertex 58.6542 81.627 0
      vertex 55 84 0
      vertex 58.2361 82.3511 0
    endloop
  endfacet
  facet normal 0 0 -1
    outer loop
      vertex 55 -4 0
      vertex 56.627 -3.65417 0
      vertex 55.8316 -3.9126 0
    endloop
  endfacet
  facet normal -0 0 -1
    outer loop
      vertex 59 0 0
      vertex 55 -4 0
      vertex 51 4 0
    endloop
  endfacet
  facet normal 0 0 -1
    outer loop
      vertex 58.2361 82.3511 0
      vertex 55 84 0
      vertex 57.6765 82.9726 0
    endloop
  endfacet
  facet normal 0 0 -1
    outer loop
      vertex 57.6765 82.9726 0
      vertex 55 84 0
      vertex 57 83.4641 0
    endloop
  endfacet
  facet normal 0 0 -1
    outer loop
      vertex 55 -4 0
      vertex 4 4 0
      vertex 51 4 0
    endloop
  endfacet
  facet normal 0 0 -1
    outer loop
      vertex -4 0 0
      vertex 4 4 0
      vertex 0 -4 0
    endloop
  endfacet
  facet normal 0 0 -1
    outer loop
      vertex 0 -4 0
      vertex 4 4 0
      vertex 55 -4 0
    endloop
  endfacet
  facet normal 0 0 -1
    outer loop
      vertex 57 83.4641 0
      vertex 55 84 0
      vertex 56.2361 83.8042 0
    endloop
  endfacet
  facet normal 0 0 -1
    outer loop
      vertex 4 76 0
      vertex 55 84 0
      vertex 51 76 0
    endloop
  endfacet
  facet normal 0 0 -1
    outer loop
      vertex 4 76 0
      vertex 0 84 0
      vertex 55 84 0
    endloop
  endfacet
  facet normal -0 0 -1
    outer loop
      vertex 4 4 0
      vertex -4 0 0
      vertex 4 76 0
    endloop
  endfacet
  facet normal 0 0 -1
    outer loop
      vertex 4 76 0
      vertex -4 80 0
      vertex 0 84 0
    endloop
  endfacet
  facet normal 0 0 -1
    outer loop
      vertex -4 0 0
      vertex 0 -4 0
      vertex -1.23607 -3.80423 0
    endloop
  endfacet
  facet normal -0 0 -1
    outer loop
      vertex 4 76 0
      vertex -4 0 0
      vertex -4 80 0
    endloop
  endfacet
  facet normal 0 0 -1
    outer loop
      vertex -4 0 0
      vertex -1.23607 -3.80423 0
      vertex -2 -3.4641 0
    endloop
  endfacet
  facet normal 0 0 -1
    outer loop
      vertex 0 84 0
      vertex -4 80 0
      vertex -0.83165 83.9126 0
    endloop
  endfacet
  facet normal 0 0 -1
    outer loop
      vertex -4 0 0
      vertex -2 -3.4641 0
      vertex -2.67653 -2.97258 0
    endloop
  endfacet
  facet normal 0 0 -1
    outer loop
      vertex -0.83165 83.9126 0
      vertex -4 80 0
      vertex -1.62695 83.6542 0
    endloop
  endfacet
  facet normal 0 0 -1
    outer loop
      vertex -4 0 0
      vertex -2.67653 -2.97258 0
      vertex -3.23607 -2.35114 0
    endloop
  endfacet
  facet normal 0 0 -1
    outer loop
      vertex -1.62695 83.6542 0
      vertex -4 80 0
      vertex -2.35114 83.2361 0
    endloop
  endfacet
  facet normal 0 0 -1
    outer loop
      vertex -4 0 0
      vertex -3.23607 -2.35114 0
      vertex -3.65417 -1.62695 0
    endloop
  endfacet
  facet normal 0 0 -1
    outer loop
      vertex -2.35114 83.2361 0
      vertex -4 80 0
      vertex -2.97258 82.6765 0
    endloop
  endfacet
  facet normal 0 0 -1
    outer loop
      vertex -4 0 0
      vertex -3.65417 -1.62695 0
      vertex -3.9126 -0.83165 0
    endloop
  endfacet
  facet normal 0 0 -1
    outer loop
      vertex -2.97258 82.6765 0
      vertex -4 80 0
      vertex -3.4641 82 0
    endloop
  endfacet
  facet normal 0 0 -1
    outer loop
      vertex -3.4641 82 0
      vertex -4 80 0
      vertex -3.80423 81.2361 0
    endloop
  endfacet
  facet normal -0 0 1
    outer loop
      vertex 0 84 3.2
      vertex 55 80 3.2
      vertex 55 84 3.2
    endloop
  endfacet
  facet normal 0 0 1
    outer loop
      vertex 0 84 3.2
      vertex 0 80 3.2
      vertex 55 80 3.2
    endloop
  endfacet
  facet normal -0 0 1
    outer loop
      vertex -0.83165 83.9126 3.2
      vertex 0 80 3.2
      vertex 0 84 3.2
    endloop
  endfacet
  facet normal 0 0 1
    outer loop
      vertex 0 80 3.2
      vertex -4 80 3.2
      vertex 0 0 3.2
    endloop
  endfacet
  facet normal -0 0 1
    outer loop
      vertex -1.62695 83.6542 3.2
      vertex 0 80 3.2
      vertex -0.83165 83.9126 3.2
    endloop
  endfacet
  facet normal 0 0 1
    outer loop
      vertex -4 0 3.2
      vertex 0 0 3.2
      vertex -4 80 3.2
    endloop
  endfacet
  facet normal -0 0 1
    outer loop
      vertex -2.35114 83.2361 3.2
      vertex 0 80 3.2
      vertex -1.62695 83.6542 3.2
    endloop
  endfacet
  facet normal 0 -0 1
    outer loop
      vertex -3.9126 -0.83165 3.2
      vertex 0 0 3.2
      vertex -4 0 3.2
    endloop
  endfacet
  facet normal -0 0 1
    outer loop
      vertex -2.97258 82.6765 3.2
      vertex 0 80 3.2
      vertex -2.35114 83.2361 3.2
    endloop
  endfacet
  facet normal 0 0 1
    outer loop
      vertex 0 0 3.2
      vertex -1.23607 -3.80423 3.2
      vertex 0 -4 3.2
    endloop
  endfacet
  facet normal -0 0 1
    outer loop
      vertex -3.4641 82 3.2
      vertex 0 80 3.2
      vertex -2.97258 82.6765 3.2
    endloop
  endfacet
  facet normal 0 0 1
    outer loop
      vertex 0 0 3.2
      vertex -2 -3.4641 3.2
      vertex -1.23607 -3.80423 3.2
    endloop
  endfacet
  facet normal -0 0 1
    outer loop
      vertex -3.80423 81.2361 3.2
      vertex 0 80 3.2
      vertex -3.4641 82 3.2
    endloop
  endfacet
  facet normal 0 0 1
    outer loop
      vertex 0 0 3.2
      vertex -2.67653 -2.97258 3.2
      vertex -2 -3.4641 3.2
    endloop
  endfacet
  facet normal 0 0 1
    outer loop
      vertex 0 80 3.2
      vertex -3.80423 81.2361 3.2
      vertex -4 80 3.2
    endloop
  endfacet
  facet normal 0 0 1
    outer loop
      vertex 0 0 3.2
      vertex -3.23607 -2.35114 3.2
      vertex -2.67653 -2.97258 3.2
    endloop
  endfacet
  facet normal 0 0 1
    outer loop
      vertex 0 0 3.2
      vertex -3.65417 -1.62695 3.2
      vertex -3.23607 -2.35114 3.2
    endloop
  endfacet
  facet normal 0 0 1
    outer loop
      vertex 0 0 3.2
      vertex -3.9126 -0.83165 3.2
      vertex -3.65417 -1.62695 3.2
    endloop
  endfacet
  facet normal 0 0 1
    outer loop
      vertex 55 80 3.2
      vertex 59 80 3.2
      vertex 58.9126 80.8316 3.2
    endloop
  endfacet
  facet normal 0 0 1
    outer loop
      vertex 59 80 3.2
      vertex 55 80 3.2
      vertex 59 0 3.2
    endloop
  endfacet
  facet normal 0 0 1
    outer loop
      vertex 55 80 3.2
      vertex 58.9126 80.8316 3.2
      vertex 58.6542 81.627 3.2
    endloop
  endfacet
  facet normal 0 0 1
    outer loop
      vertex 59 0 3.2
      vertex 55 80 3.2
      vertex 55 0 3.2
    endloop
  endfacet
  facet normal 0 0 1
    outer loop
      vertex 55 80 3.2
      vertex 58.6542 81.627 3.2
      vertex 58.2361 82.3511 3.2
    endloop
  endfacet
  facet normal 0 0 1
    outer loop
      vertex 59 0 3.2
      vertex 55 0 3.2
      vertex 58.8042 -1.23607 3.2
    endloop
  endfacet
  facet normal 0 0 1
    outer loop
      vertex 55 80 3.2
      vertex 58.2361 82.3511 3.2
      vertex 57.6765 82.9726 3.2
    endloop
  endfacet
  facet normal 0 0 1
    outer loop
      vertex 58.8042 -1.23607 3.2
      vertex 55 0 3.2
      vertex 58.4641 -2 3.2
    endloop
  endfacet
  facet normal 0 0 1
    outer loop
      vertex 55 80 3.2
      vertex 57.6765 82.9726 3.2
      vertex 57 83.4641 3.2
    endloop
  endfacet
  facet normal 0 0 1
    outer loop
      vertex 58.4641 -2 3.2
      vertex 55 0 3.2
      vertex 57.9726 -2.67653 3.2
    endloop
  endfacet
  facet normal 0 0 1
    outer loop
      vertex 55 80 3.2
      vertex 57 83.4641 3.2
      vertex 56.2361 83.8042 3.2
    endloop
  endfacet
  facet normal 0 0 1
    outer loop
      vertex 57.9726 -2.67653 3.2
      vertex 55 0 3.2
      vertex 57.3511 -3.23607 3.2
    endloop
  endfacet
  facet normal 0 0 1
    outer loop
      vertex 55 80 3.2
      vertex 56.2361 83.8042 3.2
      vertex 55 84 3.2
    endloop
  endfacet
  facet normal 0 0 1
    outer loop
      vertex 57.3511 -3.23607 3.2
      vertex 55 0 3.2
      vertex 56.627 -3.65417 3.2
    endloop
  endfacet
  facet normal 0 0 1
    outer loop
      vertex 56.627 -3.65417 3.2
      vertex 55 0 3.2
      vertex 55.8316 -3.9126 3.2
    endloop
  endfacet
  facet normal 0 0 1
    outer loop
      vertex 55 0 3.2
      vertex 55 -4 3.2
      vertex 55.8316 -3.9126 3.2
    endloop
  endfacet
  facet normal -0 0 1
    outer loop
      vertex 0 0 3.2
      vertex 55 -4 3.2
      vertex 55 0 3.2
    endloop
  endfacet
  facet normal 0 0 1
    outer loop
      vertex 55 -4 3.2
      vertex 0 0 3.2
      vertex 0 -4 3.2
    endloop
  endfacet
  facet normal -0.156432 -0.987689 0
    outer loop
      vertex -1.23607 -3.80423 0
      vertex 0 -4 3.2
      vertex -1.23607 -3.80423 3.2
    endloop
  endfacet
  facet normal -0.156432 -0.987689 -0
    outer loop
      vertex 0 -4 3.2
      vertex -1.23607 -3.80423 0
      vertex 0 -4 0
    endloop
  endfacet
  facet normal 0 1 -0
    outer loop
      vertex 55 84 0
      vertex 0 84 3.2
      vertex 55 84 3.2
    endloop
  endfacet
  facet normal 0 1 0
    outer loop
      vertex 0 84 3.2
      vertex 55 84 0
      vertex 0 84 0
    endloop
  endfacet
  facet normal 0.587777 0.809023 -0
    outer loop
      vertex 57.6765 82.9726 0
      vertex 57 83.4641 3.2
      vertex 57.6765 82.9726 3.2
    endloop
  endfacet
  facet normal 0.587777 0.809023 0
    outer loop
      vertex 57 83.4641 3.2
      vertex 57.6765 82.9726 0
      vertex 57 83.4641 0
    endloop
  endfacet
  facet normal -0.309031 0.951052 0
    outer loop
      vertex -0.83165 83.9126 0
      vertex -1.62695 83.6542 3.2
      vertex -0.83165 83.9126 3.2
    endloop
  endfacet
  facet normal -0.309031 0.951052 0
    outer loop
      vertex -1.62695 83.6542 3.2
      vertex -0.83165 83.9126 0
      vertex -1.62695 83.6542 0
    endloop
  endfacet
  facet normal -0.987689 0.156432 0
    outer loop
      vertex -4 80 0
      vertex -3.80423 81.2361 3.2
      vertex -3.80423 81.2361 0
    endloop
  endfacet
  facet normal -0.987689 0.156432 0
    outer loop
      vertex -3.80423 81.2361 3.2
      vertex -4 80 0
      vertex -4 80 3.2
    endloop
  endfacet
  facet normal -0.994523 -0.10452 0
    outer loop
      vertex -3.9126 -0.83165 0
      vertex -4 0 3.2
      vertex -4 0 0
    endloop
  endfacet
  facet normal -0.994523 -0.10452 0
    outer loop
      vertex -4 0 3.2
      vertex -3.9126 -0.83165 0
      vertex -3.9126 -0.83165 3.2
    endloop
  endfacet
  facet normal -1 0 0
    outer loop
      vertex -4 0 0
      vertex -4 80 3.2
      vertex -4 80 0
    endloop
  endfacet
  facet normal -1 -0 0
    outer loop
      vertex -4 80 3.2
      vertex -4 0 0
      vertex -4 0 3.2
    endloop
  endfacet
  facet normal -0.406746 -0.913541 0
    outer loop
      vertex -2 -3.4641 0
      vertex -1.23607 -3.80423 3.2
      vertex -2 -3.4641 3.2
    endloop
  endfacet
  facet normal -0.406746 -0.913541 -0
    outer loop
      vertex -1.23607 -3.80423 3.2
      vertex -2 -3.4641 0
      vertex -1.23607 -3.80423 0
    endloop
  endfacet
  facet normal -0.743152 -0.669123 0
    outer loop
      vertex -2.67653 -2.97258 0
      vertex -3.23607 -2.35114 3.2
      vertex -3.23607 -2.35114 0
    endloop
  endfacet
  facet normal -0.743152 -0.669123 0
    outer loop
      vertex -3.23607 -2.35114 3.2
      vertex -2.67653 -2.97258 0
      vertex -2.67653 -2.97258 3.2
    endloop
  endfacet
  facet normal 0.743152 0.669123 0
    outer loop
      vertex 58.2361 82.3511 3.2
      vertex 57.6765 82.9726 0
      vertex 57.6765 82.9726 3.2
    endloop
  endfacet
  facet normal 0.743152 0.669123 0
    outer loop
      vertex 57.6765 82.9726 0
      vertex 58.2361 82.3511 3.2
      vertex 58.2361 82.3511 0
    endloop
  endfacet
  facet normal -0.669123 0.743152 0
    outer loop
      vertex -2.35114 83.2361 0
      vertex -2.97258 82.6765 3.2
      vertex -2.35114 83.2361 3.2
    endloop
  endfacet
  facet normal -0.669123 0.743152 0
    outer loop
      vertex -2.97258 82.6765 3.2
      vertex -2.35114 83.2361 0
      vertex -2.97258 82.6765 0
    endloop
  endfacet
  facet normal -0.866026 -0.499999 0
    outer loop
      vertex -3.23607 -2.35114 0
      vertex -3.65417 -1.62695 3.2
      vertex -3.65417 -1.62695 0
    endloop
  endfacet
  facet normal -0.866026 -0.499999 0
    outer loop
      vertex -3.65417 -1.62695 3.2
      vertex -3.23607 -2.35114 0
      vertex -3.23607 -2.35114 3.2
    endloop
  endfacet
  facet normal -0.587777 -0.809023 0
    outer loop
      vertex -2.67653 -2.97258 0
      vertex -2 -3.4641 3.2
      vertex -2.67653 -2.97258 3.2
    endloop
  endfacet
  facet normal -0.587777 -0.809023 -0
    outer loop
      vertex -2 -3.4641 3.2
      vertex -2.67653 -2.97258 0
      vertex -2 -3.4641 0
    endloop
  endfacet
  facet normal 0.156432 0.987689 -0
    outer loop
      vertex 56.2361 83.8042 0
      vertex 55 84 3.2
      vertex 56.2361 83.8042 3.2
    endloop
  endfacet
  facet normal 0.156432 0.987689 0
    outer loop
      vertex 55 84 3.2
      vertex 56.2361 83.8042 0
      vertex 55 84 0
    endloop
  endfacet
  facet normal -0.499999 0.866026 0
    outer loop
      vertex -1.62695 83.6542 0
      vertex -2.35114 83.2361 3.2
      vertex -1.62695 83.6542 3.2
    endloop
  endfacet
  facet normal -0.499999 0.866026 0
    outer loop
      vertex -2.35114 83.2361 3.2
      vertex -1.62695 83.6542 0
      vertex -2.35114 83.2361 0
    endloop
  endfacet
  facet normal -0.913541 0.406746 0
    outer loop
      vertex -3.80423 81.2361 0
      vertex -3.4641 82 3.2
      vertex -3.4641 82 0
    endloop
  endfacet
  facet normal -0.913541 0.406746 0
    outer loop
      vertex -3.4641 82 3.2
      vertex -3.80423 81.2361 0
      vertex -3.80423 81.2361 3.2
    endloop
  endfacet
  facet normal -0.809023 0.587777 0
    outer loop
      vertex -3.4641 82 0
      vertex -2.97258 82.6765 3.2
      vertex -2.97258 82.6765 0
    endloop
  endfacet
  facet normal -0.809023 0.587777 0
    outer loop
      vertex -2.97258 82.6765 3.2
      vertex -3.4641 82 0
      vertex -3.4641 82 3.2
    endloop
  endfacet
  facet normal -0.951052 -0.309031 0
    outer loop
      vertex -3.65417 -1.62695 0
      vertex -3.9126 -0.83165 3.2
      vertex -3.9126 -0.83165 0
    endloop
  endfacet
  facet normal -0.951052 -0.309031 0
    outer loop
      vertex -3.9126 -0.83165 3.2
      vertex -3.65417 -1.62695 0
      vertex -3.65417 -1.62695 3.2
    endloop
  endfacet
  facet normal 0.994523 0.10452 0
    outer loop
      vertex 59 80 3.2
      vertex 58.9126 80.8316 0
      vertex 58.9126 80.8316 3.2
    endloop
  endfacet
  facet normal 0.994523 0.10452 0
    outer loop
      vertex 58.9126 80.8316 0
      vertex 59 80 3.2
      vertex 59 80 0
    endloop
  endfacet
  facet normal 0.499999 -0.866026 0
    outer loop
      vertex 56.627 -3.65417 0
      vertex 57.3511 -3.23607 3.2
      vertex 56.627 -3.65417 3.2
    endloop
  endfacet
  facet normal 0.499999 -0.866026 0
    outer loop
      vertex 57.3511 -3.23607 3.2
      vertex 56.627 -3.65417 0
      vertex 57.3511 -3.23607 0
    endloop
  endfacet
  facet normal 0.809023 -0.587777 0
    outer loop
      vertex 57.9726 -2.67653 3.2
      vertex 58.4641 -2 0
      vertex 58.4641 -2 3.2
    endloop
  endfacet
  facet normal 0.809023 -0.587777 0
    outer loop
      vertex 58.4641 -2 0
      vertex 57.9726 -2.67653 3.2
      vertex 57.9726 -2.67653 0
    endloop
  endfacet
  facet normal 0.669123 -0.743152 0
    outer loop
      vertex 57.3511 -3.23607 0
      vertex 57.9726 -2.67653 3.2
      vertex 57.3511 -3.23607 3.2
    endloop
  endfacet
  facet normal 0.669123 -0.743152 0
    outer loop
      vertex 57.9726 -2.67653 3.2
      vertex 57.3511 -3.23607 0
      vertex 57.9726 -2.67653 0
    endloop
  endfacet
  facet normal 0.913541 -0.406746 0
    outer loop
      vertex 58.4641 -2 3.2
      vertex 58.8042 -1.23607 0
      vertex 58.8042 -1.23607 3.2
    endloop
  endfacet
  facet normal 0.913541 -0.406746 0
    outer loop
      vertex 58.8042 -1.23607 0
      vertex 58.4641 -2 3.2
      vertex 58.4641 -2 0
    endloop
  endfacet
  facet normal 0.406746 0.913541 -0
    outer loop
      vertex 57 83.4641 0
      vertex 56.2361 83.8042 3.2
      vertex 57 83.4641 3.2
    endloop
  endfacet
  facet normal 0.406746 0.913541 0
    outer loop
      vertex 56.2361 83.8042 3.2
      vertex 57 83.4641 0
      vertex 56.2361 83.8042 0
    endloop
  endfacet
  facet normal 0.866026 0.499999 0
    outer loop
      vertex 58.6542 81.627 3.2
      vertex 58.2361 82.3511 0
      vertex 58.2361 82.3511 3.2
    endloop
  endfacet
  facet normal 0.866026 0.499999 0
    outer loop
      vertex 58.2361 82.3511 0
      vertex 58.6542 81.627 3.2
      vertex 58.6542 81.627 0
    endloop
  endfacet
  facet normal 0.951052 0.309031 0
    outer loop
      vertex 58.9126 80.8316 3.2
      vertex 58.6542 81.627 0
      vertex 58.6542 81.627 3.2
    endloop
  endfacet
  facet normal 0.951052 0.309031 0
    outer loop
      vertex 58.6542 81.627 0
      vertex 58.9126 80.8316 3.2
      vertex 58.9126 80.8316 0
    endloop
  endfacet
  facet normal 0.987689 -0.156432 0
    outer loop
      vertex 58.8042 -1.23607 3.2
      vertex 59 0 0
      vertex 59 0 3.2
    endloop
  endfacet
  facet normal 0.987689 -0.156432 0
    outer loop
      vertex 59 0 0
      vertex 58.8042 -1.23607 3.2
      vertex 58.8042 -1.23607 0
    endloop
  endfacet
  facet normal 0 0 1
    outer loop
      vertex 55 80 1.6
      vertex 51 76 1.6
      vertex 55 0 1.6
    endloop
  endfacet
  facet normal 0 0 1
    outer loop
      vertex 55 80 1.6
      vertex 4 76 1.6
      vertex 51 76 1.6
    endloop
  endfacet
  facet normal 0 0 1
    outer loop
      vertex 4 76 1.6
      vertex 0 80 1.6
      vertex 4 4 1.6
    endloop
  endfacet
  facet normal -0 0 1
    outer loop
      vertex 0 80 1.6
      vertex 4 76 1.6
      vertex 55 80 1.6
    endloop
  endfacet
  facet normal -0 0 1
    outer loop
      vertex 51 4 1.6
      vertex 55 0 1.6
      vertex 51 76 1.6
    endloop
  endfacet
  facet normal -0 0 1
    outer loop
      vertex 4 4 1.6
      vertex 55 0 1.6
      vertex 51 4 1.6
    endloop
  endfacet
  facet normal 0 0 1
    outer loop
      vertex 4 4 1.6
      vertex 0 0 1.6
      vertex 55 0 1.6
    endloop
  endfacet
  facet normal 0 0 1
    outer loop
      vertex 0 0 1.6
      vertex 4 4 1.6
      vertex 0 80 1.6
    endloop
  endfacet
  facet normal -1 0 0
    outer loop
      vertex 55 0 1.6
      vertex 55 80 3.2
      vertex 55 80 1.6
    endloop
  endfacet
  facet normal -1 -0 0
    outer loop
      vertex 55 80 3.2
      vertex 55 0 1.6
      vertex 55 0 3.2
    endloop
  endfacet
  facet normal 1 -0 0
    outer loop
      vertex 0 0 3.2
      vertex 0 80 1.6
      vertex 0 80 3.2
    endloop
  endfacet
  facet normal 1 0 0
    outer loop
      vertex 0 80 1.6
      vertex 0 0 3.2
      vertex 0 0 1.6
    endloop
  endfacet
  facet normal 0 1 -0
    outer loop
      vertex 55 0 1.6
      vertex 0 0 3.2
      vertex 55 0 3.2
    endloop
  endfacet
  facet normal 0 1 0
    outer loop
      vertex 0 0 3.2
      vertex 55 0 1.6
      vertex 0 0 1.6
    endloop
  endfacet
  facet normal 0 -1 0
    outer loop
      vertex 0 80 1.6
      vertex 55 80 3.2
      vertex 0 80 3.2
    endloop
  endfacet
  facet normal 0 -1 -0
    outer loop
      vertex 55 80 3.2
      vertex 0 80 1.6
      vertex 55 80 1.6
    endloop
  endfacet
  facet normal 1 -0 0
    outer loop
      vertex 4 4 1.6
      vertex 4 76 0
      vertex 4 76 1.6
    endloop
  endfacet
  facet normal 1 0 0
    outer loop
      vertex 4 76 0
      vertex 4 4 1.6
      vertex 4 4 0
    endloop
  endfacet
  facet normal -1 0 0
    outer loop
      vertex 51 4 0
      vertex 51 76 1.6
      vertex 51 76 0
    endloop
  endfacet
  facet normal -1 -0 0
    outer loop
      vertex 51 76 1.6
      vertex 51 4 0
      vertex 51 4 1.6
    endloop
  endfacet
  facet normal 0 -1 0
    outer loop
      vertex 4 76 0
      vertex 51 76 1.6
      vertex 4 76 1.6
    endloop
  endfacet
  facet normal 0 -1 -0
    outer loop
      vertex 51 76 1.6
      vertex 4 76 0
      vertex 51 76 0
    endloop
  endfacet
  facet normal 0 1 -0
    outer loop
      vertex 51 4 0
      vertex 4 4 1.6
      vertex 51 4 1.6
    endloop
  endfacet
  facet normal 0 1 0
    outer loop
      vertex 4 4 1.6
      vertex 51 4 0
      vertex 4 4 0
    endloop
  endfacet
endsolid OpenSCAD_Model
